<?xml version="1.0" encoding="UTF-8" standalone="no"?>
<svg
   width="93.093437"
   height="84.439835"
   viewBox="0 0 93.093438 84.439835"
   fill="none"
   version="1.1"
   id="svg10"
   sodipodi:docname="logo_app.svg"
   inkscape:version="1.3.2 (091e20e, 2023-11-25, custom)"
   xmlns:inkscape="http://www.inkscape.org/namespaces/inkscape"
   xmlns:sodipodi="http://sodipodi.sourceforge.net/DTD/sodipodi-0.dtd"
   xmlns="http://www.w3.org/2000/svg"
   xmlns:svg="http://www.w3.org/2000/svg">
  <sodipodi:namedview
     id="namedview10"
     pagecolor="#ffffff"
     bordercolor="#000000"
     borderopacity="0.25"
     inkscape:showpageshadow="2"
     inkscape:pageopacity="0.0"
     inkscape:pagecheckerboard="0"
     inkscape:deskcolor="#d1d1d1"
     inkscape:zoom="6.6866667"
     inkscape:cx="43.519441"
     inkscape:cy="30.284147"
     inkscape:window-width="1920"
     inkscape:window-height="1009"
     inkscape:window-x="-8"
     inkscape:window-y="-8"
     inkscape:window-maximized="1"
     inkscape:current-layer="g10" />
  <g
     clip-path="url(#clip0_2685_93044)"
     id="g10"
     transform="translate(41.5,26.823109)">
    <path
       d="M 5.175963,28 C -8.1548411,28 -19,17.150507 -19,3.8147855 -19,-9.5211071 -8.1548411,-20.369624 5.175963,-20.369624 v 5.720089 c -10.1776359,0 -18.458804,8.2833265 -18.458804,18.4641491 0,10.1816789 8.2811681,18.4668219 18.458804,18.4668219 10.17791,0 18.458084,-8.284285 18.458084,-18.4668219 h 5.71788 C 29.351927,17.150507 18.506888,28 5.175963,28 Z"
       fill="#ef7d00"
       id="path9"
       style="stroke-width:1.71322" />
    <path
       d="M 36.068784,0.22267258 H 9.034996 V -26.823109 h 2.85954 c 6.456448,0 12.527422,2.516347 17.09453,7.084122 4.566079,4.567039 7.080576,10.6413884 7.080576,17.1029771 z M 14.753218,-5.4974336 h 15.378738 c -0.594488,-3.846355 -2.384805,-7.3931704 -5.187465,-10.1978694 -2.802489,-2.803756 -6.34766,-4.594844 -10.191273,-5.189555 z"
       fill="#ef7d00"
       id="path10"
       style="stroke-width:1.71322" />
    <path
       d="m -33.33999,57.616724 c 5.280007,0 8.160011,-3.920005 8.160011,-9.893346 0,-5.093339 -2.320003,-9.893345 -8.160011,-9.893345 -5.81334,0 -8.16001,4.800006 -8.16001,9.893345 0,5.973341 2.90667,9.893346 8.16001,9.893346 z m 0,-2.98667 c -2.933337,0 -4.480005,-2.560003 -4.480005,-6.906676 0,-4.373338 1.573335,-6.960008 4.480005,-6.960008 2.906671,0 4.506673,2.58667 4.506673,6.960008 0,4.346673 -1.573336,6.906676 -4.506673,6.906676 z m 15.013338,2.66667 v -7.306676 h 2.853337 c 4.720006,0 7.4400104,-1.893336 7.4400104,-5.973341 0,-3.946672 -2.4266704,-5.866674 -7.3866764,-5.866674 h -6.586675 v 19.146691 z m 0,-10.320013 V 41.24337 h 3.146671 c 2.213336,0 3.466671,0.906668 3.466671,2.773337 0,2.50667 -1.893336,2.960004 -3.600005,2.960004 z m 24.0800374,3.920005 c -0.693334,2.640003 -2.160003,3.626671 -4.000005,3.626671 -2.773337,0 -4.186672,-2.240003 -4.186672,-6.960009 0,-4.293338 1.62666898,-6.693341 4.266672,-6.693341 1.813336,0 3.066671,0.906667 3.733338,3.413337 l 3.413338,-0.640001 c -0.906668,-4.080005 -3.226671,-5.81334 -7.093343,-5.81334 -4.906672,0 -8.00001,3.520004 -8.00001,9.733345 0,6.346675 2.693337,10.053346 7.76001,10.053346 3.493338,0 6.293341,-1.226668 7.60001,-5.920007 z M 29.56673,50.256715 c 0,2.880004 -1.44001,4.266672 -4.02668,4.266672 -2.64,0 -3.78667,-1.386668 -3.78667,-4.266672 V 38.150033 h -3.68 v 11.413348 c 0,5.066673 1.89333,8.053343 7.38667,8.053343 5.49334,0 7.78668,-2.98667 7.78668,-8.053343 V 38.150033 h -3.68 z m 22.02671,7.040009 -5.78668,-19.146691 h -4.98667 l -5.76001,19.146691 h 3.70667 l 1.38667,-5.040006 h 6.18668 l 1.38667,5.040006 z M 43.22009,41.190037 h 0.0533 l 2.21333,8.00001 h -4.48 z"
       id="text10"
       style="font-weight:bold;font-size:26.6667px;font-family:'Trade Gothic Next LT Pro';-inkscape-font-specification:'Trade Gothic Next LT Pro, Bold';white-space:pre;fill:#929191"
       aria-label="OPC UA" />
  </g>
  <defs
     id="defs10">
    <rect
       x="0"
       y="0"
       width="132.65205"
       height="49.351944"
       id="rect11" />
  </defs>
</svg>
