<?xml version="1.0" encoding="UTF-8" standalone="no"?>
<svg
   width="129.30554"
   height="32"
   viewBox="0 0 129.30554 32"
   fill="none"
   version="1.1"
   id="svg10"
   sodipodi:docname="logo_basyskom_app.svg"
   inkscape:version="1.3.2 (091e20e, 2023-11-25, custom)"
   xmlns:inkscape="http://www.inkscape.org/namespaces/inkscape"
   xmlns:sodipodi="http://sodipodi.sourceforge.net/DTD/sodipodi-0.dtd"
   xmlns="http://www.w3.org/2000/svg"
   xmlns:svg="http://www.w3.org/2000/svg">
  <sodipodi:namedview
     id="namedview10"
     pagecolor="#ffffff"
     bordercolor="#000000"
     borderopacity="0.25"
     inkscape:showpageshadow="2"
     inkscape:pageopacity="0.0"
     inkscape:pagecheckerboard="0"
     inkscape:deskcolor="#d1d1d1"
     inkscape:zoom="6.6866667"
     inkscape:cx="71.859422"
     inkscape:cy="11.291127"
     inkscape:window-width="2560"
     inkscape:window-height="1369"
     inkscape:window-x="1912"
     inkscape:window-y="-8"
     inkscape:window-maximized="1"
     inkscape:current-layer="g10" />
  <g
     clip-path="url(#clip0_2685_93044)"
     id="g10">
    <path
       d="M 14.1114,32 C 6.33027,32 0,25.6672 0,17.8832 0,10.0991 6.33027,3.76687 14.1114,3.76687 v 3.33879 c -5.94064,0 -10.77432,4.83494 -10.77432,10.77744 0,5.943 4.83368,10.779 10.77432,10.779 5.9408,0 10.7739,-4.8355 10.7739,-10.779 h 3.3375 C 28.2228,25.6672 21.8926,32 14.1114,32 Z"
       fill="#ef7d00"
       id="path9" />
    <path
       d="M 32.1434,15.7865 H 16.3639 V 0 h 1.6691 c 3.7686,0 7.3122,1.46878 9.978,4.13497 2.6652,2.66576 4.1329,6.21133 4.1329,9.98293 z M 19.7016,12.4477 h 8.9765 C 28.3311,10.2026 27.2861,8.13234 25.6502,6.49525 24.0144,4.85871 21.9451,3.81326 19.7016,3.46613 Z"
       fill="#ef7d00"
       id="path10" />
    <path
       d="m 48.7091,29.501072 c 5.280007,0 8.160011,-3.920005 8.160011,-9.893346 0,-5.093339 -2.320003,-9.8933453 -8.160011,-9.8933453 -5.81334,0 -8.16001,4.8000063 -8.16001,9.8933453 0,5.973341 2.90667,9.893346 8.16001,9.893346 z m 0,-2.98667 c -2.933337,0 -4.480005,-2.560003 -4.480005,-6.906676 0,-4.373338 1.573335,-6.960008 4.480005,-6.960008 2.906671,0 4.506673,2.58667 4.506673,6.960008 0,4.346673 -1.573336,6.906676 -4.506673,6.906676 z m 15.013338,2.66667 v -7.306676 h 2.853337 c 4.720006,0 7.44001,-1.893336 7.44001,-5.973341 0,-3.946672 -2.42667,-5.866674 -7.386676,-5.866674 h -6.586675 v 19.146691 z m 0,-10.320013 v -5.733341 h 3.146671 c 2.213336,0 3.466671,0.906668 3.466671,2.773337 0,2.50667 -1.893336,2.960004 -3.600005,2.960004 z m 24.080037,3.920005 c -0.693334,2.640003 -2.160003,3.626671 -4.000005,3.626671 -2.773337,0 -4.186672,-2.240003 -4.186672,-6.960009 0,-4.293338 1.626669,-6.693341 4.266672,-6.693341 1.813336,0 3.066671,0.906667 3.733338,3.413337 l 3.413338,-0.640001 c -0.906668,-4.080005 -3.226671,-5.8133403 -7.093343,-5.8133403 -4.906672,0 -8.00001,3.5200043 -8.00001,9.7333453 0,6.346675 2.693337,10.053346 7.76001,10.053346 3.493338,0 6.293341,-1.226668 7.60001,-5.920007 z m 23.813345,-0.640001 c 0,2.880004 -1.44001,4.266672 -4.02668,4.266672 -2.64,0 -3.78667,-1.386668 -3.78667,-4.266672 V 10.034381 h -3.68 v 11.413348 c 0,5.066673 1.89333,8.053343 7.38667,8.053343 5.49334,0 7.78668,-2.98667 7.78668,-8.053343 V 10.034381 h -3.68 z m 22.02671,7.040009 -5.78668,-19.146691 h -4.98667 l -5.76001,19.146691 h 3.70667 l 1.38667,-5.040006 h 6.18668 l 1.38667,5.040006 z m -8.37335,-16.106687 h 0.0533 l 2.21333,8.00001 h -4.48 z"
       id="text10"
       style="font-weight:bold;font-size:26.6667px;font-family:'Trade Gothic Next LT Pro';-inkscape-font-specification:'Trade Gothic Next LT Pro, Bold';white-space:pre;fill:#929191"
       transform="translate(-4.3369893,-2.6919243)"
       aria-label="OPC UA" />
  </g>
  <defs
     id="defs10">
    <rect
       x="39.481556"
       y="5.2342973"
       width="132.65205"
       height="49.351944"
       id="rect11" />
    <clipPath
       id="clip0_2685_93044">
      <rect
         width="150"
         height="32"
         fill="#ffffff"
         id="rect10"
         x="0"
         y="0" />
    </clipPath>
  </defs>
</svg>
