<svg width="150" height="32" viewBox="0 0 150 32" fill="none" xmlns="http://www.w3.org/2000/svg">
<g clip-path="url(#clip0_2685_93044)">
<path d="M40.108 7.44759H43.3146V14.1021C43.9323 13.5368 44.5469 13.125 45.1566 12.869C45.7664 12.6129 46.4067 12.4846 47.0786 12.4846C47.8903 12.4846 48.6325 12.648 49.3043 12.9751C49.9751 13.3022 50.546 13.775 51.0138 14.394C51.4817 15.0119 51.8434 15.7634 52.1004 16.6469C52.357 17.5303 52.4853 18.5206 52.4853 19.6159C52.4853 20.6773 52.3696 21.6449 52.1399 22.5199C51.9096 23.3941 51.57 24.1492 51.1201 24.7865C50.6691 25.4228 50.1087 25.9182 49.4368 26.271C48.765 26.6239 47.988 26.8016 47.1048 26.8016C46.6632 26.8016 46.2607 26.7659 45.899 26.6953C45.5362 26.624 45.1966 26.5134 44.8785 26.3637C44.5605 26.2138 44.2519 26.0243 43.9507 25.7941C43.65 25.5643 43.342 25.2897 43.0235 24.9722L42.5735 26.4831H40.108V7.44759ZM43.3147 22.665C43.6333 23.1246 44.0434 23.4834 44.547 23.7389C45.0501 23.995 45.5763 24.1233 46.124 24.1233C47.1134 24.1233 47.8734 23.7168 48.4033 22.9033C48.9327 22.0913 49.1982 20.9511 49.1982 19.4834C49.1982 18.1047 48.9248 17.0307 48.3776 16.2618C47.8293 15.4931 47.0792 15.1086 46.124 15.1086C45.6109 15.1086 45.1126 15.2416 44.6268 15.5062C44.1416 15.7711 43.7037 16.1519 43.3147 16.6461V22.665Z" fill="#929191"/>
<path d="M62.3887 26.4825L62.1494 24.9458C61.4786 25.5116 60.768 25.9534 60.0157 26.271C59.265 26.5892 58.466 26.749 57.6181 26.749C56.4521 26.749 55.5385 26.4167 54.8746 25.754C54.2127 25.0914 53.8811 24.1765 53.8811 23.01C53.8811 22.1081 54.0703 21.3529 54.4508 20.7433C54.8304 20.1329 55.3996 19.6165 56.1598 19.1915C56.8491 18.8034 57.7059 18.4768 58.731 18.2118C59.756 17.9468 60.8953 17.6896 62.1494 17.4424C62.2377 16.5059 62.1104 15.8348 61.7652 15.4272C61.4214 15.0212 60.798 14.8177 59.897 14.8177C59.1899 14.8177 58.5933 14.9633 58.1075 15.2551C57.6223 15.5465 57.1845 16.0018 56.7965 16.6203L54.4898 15.1883C55.1081 14.1639 55.8908 13.4388 56.8355 13.0143C57.7807 12.59 58.8714 12.3786 60.1084 12.3786C61.8932 12.3786 63.2046 12.7725 64.0442 13.5582C64.8821 14.3449 65.3027 15.5603 65.3027 17.203V23.99L65.5414 26.4818L62.3887 26.4825ZM62.0438 19.484C61.0712 19.678 60.2984 19.8547 59.7239 20.0135C59.1504 20.1728 58.641 20.3758 58.1999 20.6241C57.5114 21.0301 57.167 21.6754 57.167 22.5598C57.167 23.1078 57.3206 23.5316 57.6307 23.8319C57.9387 24.1333 58.3588 24.282 58.8892 24.282C59.4538 24.282 60.0199 24.1496 60.585 23.885C61.1501 23.62 61.6364 23.2581 62.0432 22.7969L62.0438 19.484Z" fill="#929191"/>
<path d="M75.2573 16.3549C74.8505 15.755 74.4226 15.3437 73.9716 15.1223C73.5206 14.9014 73.0137 14.7909 72.4481 14.7909C71.8647 14.7909 71.4088 14.9235 71.0836 15.1884C70.7555 15.454 70.5925 15.8158 70.5925 16.2748C70.5925 16.7177 70.7735 17.0532 71.136 17.2836C71.4977 17.5132 71.9534 17.7121 72.5008 17.8793C73.0491 18.0477 73.6363 18.2154 74.2639 18.3829C74.8905 18.5516 75.4783 18.7903 76.0259 19.099C76.5726 19.4083 77.0273 19.8326 77.389 20.3715C77.7518 20.9106 77.9331 21.622 77.9331 22.5055C77.9331 23.195 77.8059 23.8051 77.5477 24.3356C77.2923 24.8652 76.9259 25.3152 76.449 25.6871C75.9717 26.0582 75.4025 26.3365 74.7396 26.5223C74.0772 26.7084 73.3487 26.8013 72.5527 26.8013C71.2459 26.8013 70.1683 26.58 69.3198 26.1384C68.473 25.6971 67.7028 24.9899 67.0147 24.018L69.3198 22.4267C69.7965 23.0999 70.265 23.5931 70.7243 23.9123C71.1838 24.2304 71.8021 24.3892 72.5801 24.3892C73.3034 24.3892 73.8553 24.2435 74.2354 23.9521C74.615 23.6608 74.8058 23.2591 74.8058 22.7458C74.8058 22.251 74.6249 21.8755 74.2632 21.6194C73.9005 21.3633 73.4489 21.1513 72.9107 20.9825C72.3714 20.8146 71.7879 20.6518 71.1612 20.4913C70.5336 20.3325 69.9512 20.1032 69.4129 19.8034C68.8735 19.5025 68.4225 19.0919 68.0608 18.5703C67.698 18.0496 67.5173 17.3471 67.5173 16.4625C67.5173 15.8619 67.6371 15.3093 67.8748 14.8054C68.1145 14.3021 68.4531 13.8688 68.8951 13.5065C69.3366 13.1447 69.857 12.8665 70.4585 12.6709C71.0589 12.4768 71.7212 12.3801 72.4466 12.3801C73.6125 12.3801 74.6008 12.5746 75.4146 12.9627C76.2263 13.3519 76.916 14.0228 77.4816 14.9783L75.2573 16.3549Z" fill="#929191"/>
<path d="M86.3519 25.9265C85.9996 26.9699 85.659 27.8355 85.3315 28.5244C85.0051 29.2132 84.6335 29.7702 84.2197 30.195C83.8034 30.619 83.3218 30.9193 82.7746 31.0959C82.2269 31.2726 81.5551 31.3614 80.7608 31.3614C80.3533 31.3614 79.9695 31.343 79.6069 31.3079C79.2452 31.2726 78.9045 31.2284 78.587 31.1759V28.7369C78.8693 28.7894 79.1426 28.8247 79.4086 28.8431C79.6734 28.8592 79.9206 28.8693 80.1499 28.8693C80.963 28.8693 81.5544 28.7058 81.926 28.3787C82.2967 28.0521 82.6063 27.4995 82.8534 26.7216L83.0657 26.1121L78.1374 12.6968H81.6879L84.5771 21.9234H84.6297L87.4388 12.6968H90.8321L86.3519 25.9265Z" fill="#929191"/>
<path d="M99.1154 16.3549C98.7096 15.755 98.2807 15.3437 97.8307 15.1223C97.3796 14.9014 96.8718 14.7909 96.3061 14.7909C95.7238 14.7909 95.2694 14.9235 94.9424 15.1884C94.6144 15.454 94.4516 15.8158 94.4516 16.2748C94.4516 16.7177 94.6323 17.0532 94.9951 17.2836C95.3566 17.5132 95.8125 17.7121 96.3596 17.8793C96.908 18.0477 97.4941 18.2154 98.1218 18.3829C98.7495 18.5516 99.3361 18.7903 99.8833 19.099C100.431 19.4083 100.886 19.8326 101.248 20.3715C101.611 20.9106 101.792 21.622 101.792 22.5055C101.792 23.195 101.665 23.8051 101.407 24.3356C101.151 24.8652 100.786 25.3152 100.308 25.6871C99.8308 26.0588 99.2615 26.3365 98.5985 26.5223C97.9367 26.7084 97.2066 26.8013 96.4123 26.8013C95.1048 26.8013 94.0272 26.58 93.1787 26.1384C92.3319 25.6971 91.5618 24.9899 90.8737 24.018L93.1787 22.4267C93.6567 23.0999 94.1244 23.5931 94.5834 23.9123C95.0434 24.2304 95.661 24.3892 96.439 24.3892C97.1623 24.3892 97.7154 24.2435 98.0949 23.9521C98.474 23.6608 98.6648 23.2591 98.6648 22.7458C98.6648 22.251 98.4841 21.8755 98.1214 21.6194C97.7596 21.3633 97.308 21.1513 96.7699 20.9825C96.2304 20.8146 95.647 20.6518 95.0203 20.4913C94.3937 20.3325 93.8101 20.1032 93.272 19.8034C92.7315 19.5025 92.2816 19.0919 91.92 18.5703C91.5573 18.0496 91.3763 17.3471 91.3763 16.4625C91.3763 15.8619 91.4953 15.3093 91.7339 14.8054C91.9726 14.3021 92.3121 13.8688 92.7537 13.5065C93.1953 13.1447 93.7168 12.8665 94.3182 12.6709C94.9184 12.4768 95.5818 12.3801 96.3053 12.3801C97.4722 12.3801 98.4605 12.5746 99.2743 12.9627C100.086 13.3519 100.776 14.0228 101.341 14.9783L99.1154 16.3549Z" fill="#929191"/>
<path d="M123.088 26.8016C122.134 26.8016 121.272 26.637 120.503 26.311C119.734 25.9844 119.086 25.5123 118.555 24.8928C118.025 24.2742 117.619 23.5229 117.336 22.6383C117.054 21.7548 116.912 20.7567 116.912 19.6433C116.912 18.5123 117.054 17.4957 117.336 16.5943C117.619 15.693 118.025 14.9289 118.555 14.3016C119.086 13.6741 119.734 13.1971 120.503 12.8696C121.272 12.5424 122.134 12.3794 123.088 12.3794C125.013 12.3794 126.519 13.0152 127.605 14.2879C128.693 15.561 129.236 17.3452 129.236 19.6434C129.236 21.8879 128.693 23.6424 127.605 24.9059C126.519 26.169 125.013 26.8016 123.088 26.8016ZM123.088 24.2559C124.095 24.2559 124.823 23.8319 125.274 22.9837C125.724 22.1348 125.95 21.0216 125.95 19.6432C125.95 18.9717 125.896 18.3486 125.79 17.7738C125.685 17.1996 125.516 16.6998 125.287 16.2754C125.056 15.8517 124.76 15.5203 124.399 15.2816C124.037 15.0434 123.6 14.9236 123.087 14.9236C122.574 14.9236 122.134 15.0434 121.762 15.2816C121.391 15.5203 121.091 15.8517 120.86 16.2754C120.631 16.6999 120.464 17.2 120.357 17.7738C120.25 18.348 120.197 18.9717 120.197 19.6432C120.197 21.0221 120.427 22.1349 120.887 22.9837C121.346 23.8319 122.08 24.2559 123.088 24.2559Z" fill="#929191"/>
<path d="M146.794 26.4825V17.1238C146.794 16.7356 146.745 16.4133 146.648 16.1562C146.55 15.9005 146.422 15.6971 146.263 15.5467C146.105 15.3968 145.923 15.2906 145.72 15.2285C145.517 15.1664 145.3 15.136 145.071 15.136C144.611 15.136 144.156 15.251 143.706 15.4799C143.256 15.7107 142.792 16.0816 142.314 16.5937V26.482H139.081V17.362C139.081 16.6726 138.958 16.1294 138.71 15.7323C138.462 15.3343 138.04 15.1355 137.439 15.1355C136.997 15.1355 136.538 15.2591 136.06 15.5063C135.583 15.754 135.088 16.152 134.576 16.6995V26.4821H131.37V12.7228H134.338V14.3934C134.956 13.7744 135.628 13.2838 136.351 12.9215C137.077 12.5597 137.791 12.3782 138.498 12.3782C139.364 12.3782 140.062 12.5464 140.591 12.8815C141.122 13.2175 141.537 13.756 141.838 14.4996C142.579 13.7922 143.295 13.2622 143.983 12.9082C144.672 12.5548 145.442 12.3781 146.289 12.3781C147.473 12.3781 148.387 12.7142 149.032 13.3852C149.677 14.0573 150 15.1616 150 16.6993V26.4818L146.794 26.4825Z" fill="#929191"/>
<path d="M106.992 26.4835V21.9693L109.302 19.2935L113.162 26.4835H116.731L111.36 16.5463L116.844 9.73884H113.16L106.989 17.6417L106.991 9.73884H103.787V26.4835H106.992Z" fill="#929191"/>
<path d="M14.1114 32C6.33027 32 0 25.6672 0 17.8832C0 10.0991 6.33027 3.76687 14.1114 3.76687V7.10566C8.17076 7.10566 3.33708 11.9406 3.33708 17.8831C3.33708 23.8261 8.17076 28.6621 14.1114 28.6621C20.0522 28.6621 24.8853 23.8266 24.8853 17.8831H28.2228C28.2228 25.6672 21.8926 32 14.1114 32Z" fill="#EF7D00"/>
<path d="M32.1434 15.7865H16.3639V0H18.033C21.8016 0 25.3452 1.46878 28.011 4.13497C30.6762 6.80073 32.1439 10.3463 32.1439 14.1179L32.1434 15.7865ZM19.7016 12.4477H28.6781C28.3311 10.2026 27.2861 8.13234 25.6502 6.49525C24.0144 4.85871 21.9451 3.81326 19.7016 3.46613V12.4477Z" fill="#EF7D00"/>
</g>
<defs>
<clipPath id="clip0_2685_93044">
<rect width="150" height="32" fill="white"/>
</clipPath>
</defs>
</svg>